<?xml version="1.0" standalone="no"?><!DOCTYPE svg PUBLIC "-//W3C//DTD SVG 1.1//EN" "http://www.w3.org/Graphics/SVG/1.1/DTD/svg11.dtd"><svg class="icon" width="200px" height="200.00px" viewBox="0 0 1024 1024" version="1.1" xmlns="http://www.w3.org/2000/svg"><path fill="#ff4d4f" d="M773.802667 304.469333l-54.314667-54.314666a4.266667 4.266667 0 0 0-6.016 0L520.533333 443.136a4.266667 4.266667 0 0 1-6.016 0L321.493333 250.197333a4.266667 4.266667 0 0 0-6.016 0L261.12 304.469333a4.266667 4.266667 0 0 0 0 6.016l192.981333 192.981334a4.266667 4.266667 0 0 1 0 6.016L261.12 702.464a4.266667 4.266667 0 0 0 0 6.016l54.314667 54.314667a4.266667 4.266667 0 0 0 6.016 0l192.981333-192.981334a4.266667 4.266667 0 0 1 6.016 0l192.981333 192.981334a4.266667 4.266667 0 0 0 6.016 0l54.314667-54.314667a4.266667 4.266667 0 0 0 0-6.016l-192.981333-192.981333a4.266667 4.266667 0 0 1 0-6.016l192.981333-192.981334a4.266667 4.266667 0 0 0 0-6.016z" /></svg>